<svg width="70" height="70" viewBox="0 0 70 70" fill="none" xmlns="http://www.w3.org/2000/svg" xmlns:xlink="http://www.w3.org/1999/xlink">
<path d="M30.7,59.199C33.691,59.199 36.121,61.62 36.121,64.6C36.121,67.585 33.691,70 30.7,70C27.704,70 25.279,67.585 25.279,64.6C25.279,61.615 27.704,59.199 30.7,59.199ZM50.582,22.695C52.154,22.684 53.429,23.943 53.423,25.509C53.423,27.076 52.143,28.358 50.57,28.369L43.674,28.426L37.979,28.466L31.106,28.512C29.534,28.523 28.258,27.264 28.264,25.697C28.27,24.131 29.545,22.849 31.123,22.838L38.019,22.786L43.714,22.747L50.582,22.695ZM12.94,7.178L66.289,7.178C69.777,7.178 69.588,8.585 69.285,12.174L67.301,37.375C66.964,41.392 67.25,40.417 62.978,41.027L23.741,46L25.817,51.999C42.839,51.999 51.068,51.999 68.079,51.999C68.651,54.129 69.428,57.598 70,59.974L62.978,59.974L62.304,57.547C48.123,57.547 42.719,57.547 28.533,57.547C20.785,57.416 21.563,59.507 19.704,52.836L6.393,4.62L0,4.62L0,0L11.213,0C11.733,1.943 12.454,5.212 12.94,7.178ZM53.058,59.199C56.048,59.199 58.478,61.62 58.478,64.6C58.478,67.585 56.048,70 53.058,70C50.061,70 47.637,67.585 47.637,64.6C47.637,61.615 50.067,59.199 53.058,59.199Z" clip-rule="evenodd" fill-rule="evenodd" fill="#000000"/>
</svg>
